<?xml version="1.0" encoding="UTF-8"?>
<svg xmlns="http://www.w3.org/2000/svg" xmlns:xlink="http://www.w3.org/1999/xlink" viewBox="0 0 102 100" version="1.1">
<g id="surface1">
<path style=" stroke:none;fill-rule:evenodd;fill:rgb(14.117647%,16.078431%,18.431373%);fill-opacity:1;" d="M 50.847656 0 C 22.730469 0 0 22.917969 0 51.269531 C 0 73.929688 14.5625 93.113281 34.769531 99.902344 C 37.292969 100.414062 38.21875 98.800781 38.21875 97.441406 C 38.21875 96.253906 38.136719 92.179688 38.136719 87.933594 C 23.992188 90.992188 21.046875 81.824219 21.046875 81.824219 C 18.773438 75.882812 15.40625 74.355469 15.40625 74.355469 C 10.777344 71.214844 15.742188 71.214844 15.742188 71.214844 C 20.878906 71.554688 23.574219 76.476562 23.574219 76.476562 C 28.117188 84.285156 35.441406 82.078125 38.386719 80.722656 C 38.808594 77.410156 40.15625 75.117188 41.589844 73.847656 C 30.304688 72.65625 18.4375 68.242188 18.4375 48.550781 C 18.4375 42.949219 20.457031 38.367188 23.65625 34.800781 C 23.152344 33.527344 21.382812 28.265625 24.160156 21.21875 C 24.160156 21.21875 28.453125 19.863281 38.136719 26.480469 C 42.28125 25.359375 46.554688 24.789062 50.847656 24.785156 C 55.140625 24.785156 59.519531 25.378906 63.558594 26.480469 C 73.242188 19.863281 77.535156 21.21875 77.535156 21.21875 C 80.3125 28.265625 78.542969 33.527344 78.039062 34.800781 C 81.324219 38.367188 83.257812 42.949219 83.257812 48.550781 C 83.257812 68.242188 71.390625 72.570312 60.023438 73.847656 C 61.875 75.457031 63.476562 78.511719 63.476562 83.351562 C 63.476562 90.226562 63.390625 95.746094 63.390625 97.441406 C 63.390625 98.800781 64.316406 100.414062 66.84375 99.902344 C 87.046875 93.113281 101.613281 73.929688 101.613281 51.269531 C 101.695312 22.917969 78.882812 0 50.847656 0 Z M 50.847656 0 "/>
</g>
</svg>
