<?xml version="1.0" encoding="UTF-8"?>
<svg xmlns="http://www.w3.org/2000/svg" xmlns:xlink="http://www.w3.org/1999/xlink" viewBox="0 0 102 100" version="1.1">
<g id="surface1">
<path style=" stroke:none;fill-rule:nonzero;fill:rgb(0%,0%,0%);fill-opacity:1;" d="M 45.609375 0 C 32.433594 0 21.449219 9.519531 19.148438 22.046875 C 9.46875 22.945312 2.058594 31.066406 2.046875 40.796875 C 2.058594 51.191406 10.476562 59.617188 20.867188 59.628906 L 49.015625 59.628906 C 50.453125 59.628906 51.617188 58.464844 51.617188 57.023438 C 51.617188 55.585938 50.453125 54.421875 49.015625 54.421875 L 20.863281 54.421875 C 13.347656 54.414062 7.253906 48.316406 7.25 40.796875 C 7.257812 35.761719 10.035156 31.140625 14.476562 28.777344 C 18.917969 26.414062 24.300781 26.691406 28.476562 29.5 C 29.664062 30.253906 31.238281 29.929688 32.027344 28.761719 C 32.816406 27.59375 32.535156 26.011719 31.390625 25.1875 C 29.28125 23.761719 26.898438 22.785156 24.398438 22.3125 C 26.582031 12.335938 35.40625 5.222656 45.613281 5.210938 C 56.558594 5.226562 65.789062 13.382812 67.152344 24.253906 C 66.449219 24.632812 65.769531 25.058594 65.121094 25.523438 C 64.332031 26.054688 63.890625 26.972656 63.976562 27.921875 C 64.0625 28.871094 64.65625 29.699219 65.53125 30.078125 C 66.402344 30.457031 67.414062 30.332031 68.164062 29.746094 C 70.480469 28.070312 73.265625 27.171875 76.125 27.179688 C 82.582031 27.191406 88.144531 31.730469 89.460938 38.054688 C 89.75 39.464844 91.125 40.371094 92.53125 40.082031 C 93.941406 39.792969 94.847656 38.417969 94.558594 37.007812 C 92.742188 28.261719 85.050781 21.988281 76.125 21.964844 C 74.785156 21.96875 73.445312 22.117188 72.136719 22.402344 C 69.96875 9.699219 58.910156 0 45.609375 0 M 67.222656 44.332031 C 66.554688 44.3125 65.890625 44.46875 65.300781 44.785156 C 64.777344 45.078125 64.332031 45.492188 63.996094 45.992188 C 63.648438 46.535156 63.402344 47.136719 63.269531 47.769531 C 63.117188 48.472656 63.042969 49.191406 63.042969 49.914062 C 63.042969 50.667969 63.121094 51.382812 63.269531 52.066406 C 63.417969 52.75 63.664062 53.347656 63.996094 53.859375 C 64.324219 54.371094 64.773438 54.796875 65.300781 55.097656 C 65.828125 55.398438 66.46875 55.554688 67.222656 55.554688 C 67.972656 55.554688 68.613281 55.398438 69.140625 55.097656 C 69.660156 54.792969 70.101562 54.371094 70.425781 53.863281 C 70.757812 53.347656 70.996094 52.75 71.144531 52.066406 C 71.296875 51.382812 71.371094 50.667969 71.371094 49.914062 C 71.371094 49.164062 71.296875 48.445312 71.144531 47.769531 C 71.015625 47.140625 70.773438 46.539062 70.425781 45.996094 C 70.097656 45.496094 69.660156 45.078125 69.140625 44.785156 C 68.550781 44.46875 67.890625 44.3125 67.222656 44.332031 M 94.226562 44.332031 C 93.558594 44.3125 92.894531 44.46875 92.304688 44.785156 C 91.78125 45.078125 91.332031 45.492188 91 45.992188 C 90.652344 46.535156 90.40625 47.136719 90.273438 47.769531 C 90.121094 48.476562 90.046875 49.191406 90.050781 49.914062 C 90.050781 50.667969 90.121094 51.382812 90.273438 52.066406 C 90.421875 52.75 90.667969 53.347656 91 53.859375 C 91.328125 54.371094 91.777344 54.796875 92.304688 55.097656 C 92.832031 55.398438 93.472656 55.554688 94.226562 55.554688 C 94.976562 55.554688 95.617188 55.398438 96.140625 55.097656 C 96.664062 54.796875 97.109375 54.371094 97.433594 53.863281 C 97.757812 53.347656 98 52.75 98.148438 52.066406 C 98.300781 51.382812 98.375 50.667969 98.375 49.914062 C 98.375 49.164062 98.300781 48.445312 98.148438 47.769531 C 98.019531 47.140625 97.773438 46.539062 97.429688 45.996094 C 97.105469 45.496094 96.664062 45.078125 96.144531 44.785156 C 95.558594 44.46875 94.894531 44.3125 94.226562 44.332031 M 58.683594 44.617188 L 55.1875 47.191406 L 56.492188 48.984375 L 58.472656 47.449219 L 58.472656 55.269531 L 60.984375 55.269531 L 60.984375 44.617188 Z M 85.6875 44.617188 L 82.1875 47.191406 L 83.496094 48.984375 L 85.480469 47.449219 L 85.480469 55.269531 L 87.992188 55.269531 L 87.992188 44.617188 Z M 67.222656 46.472656 C 67.558594 46.472656 67.820312 46.585938 68.027344 46.820312 C 68.234375 47.058594 68.390625 47.351562 68.503906 47.695312 C 68.609375 48.042969 68.6875 48.417969 68.726562 48.816406 C 68.804688 49.554688 68.804688 50.300781 68.726562 51.039062 C 68.6875 51.441406 68.609375 51.816406 68.503906 52.164062 C 68.40625 52.484375 68.246094 52.78125 68.027344 53.039062 C 67.828125 53.273438 67.53125 53.402344 67.222656 53.390625 C 66.914062 53.402344 66.617188 53.269531 66.414062 53.035156 C 66.191406 52.78125 66.023438 52.484375 65.921875 52.164062 C 65.800781 51.796875 65.722656 51.421875 65.6875 51.039062 C 65.613281 50.300781 65.613281 49.554688 65.6875 48.816406 C 65.730469 48.417969 65.808594 48.042969 65.921875 47.691406 C 66.023438 47.371094 66.191406 47.074219 66.414062 46.820312 C 66.617188 46.589844 66.914062 46.460938 67.222656 46.472656 M 94.226562 46.472656 C 94.558594 46.472656 94.828125 46.585938 95.03125 46.820312 C 95.238281 47.058594 95.394531 47.351562 95.503906 47.695312 C 95.617188 48.042969 95.6875 48.417969 95.730469 48.816406 C 95.808594 49.554688 95.808594 50.300781 95.730469 51.039062 C 95.6875 51.441406 95.617188 51.816406 95.503906 52.164062 C 95.410156 52.484375 95.246094 52.78125 95.03125 53.039062 C 94.832031 53.273438 94.535156 53.402344 94.226562 53.390625 C 93.917969 53.398438 93.617188 53.269531 93.414062 53.035156 C 93.195312 52.78125 93.027344 52.484375 92.929688 52.164062 C 92.808594 51.796875 92.730469 51.421875 92.695312 51.039062 C 92.621094 50.300781 92.621094 49.554688 92.695312 48.816406 C 92.738281 48.417969 92.8125 48.042969 92.929688 47.691406 C 93.027344 47.371094 93.195312 47.074219 93.414062 46.820312 C 93.621094 46.589844 93.917969 46.460938 94.226562 46.472656 M 85.105469 61.097656 C 84.433594 61.078125 83.769531 61.234375 83.179688 61.550781 C 82.65625 61.84375 82.210938 62.261719 81.878906 62.761719 C 81.546875 63.269531 81.300781 63.859375 81.148438 64.539062 C 81 65.242188 80.921875 65.960938 80.925781 66.679688 C 80.925781 67.429688 81 68.148438 81.148438 68.828125 C 81.300781 69.511719 81.542969 70.113281 81.878906 70.628906 C 82.207031 71.136719 82.652344 71.5625 83.179688 71.863281 C 83.769531 72.183594 84.433594 72.339844 85.105469 72.320312 C 85.855469 72.320312 86.492188 72.167969 87.019531 71.863281 C 87.542969 71.5625 87.980469 71.136719 88.304688 70.628906 C 88.648438 70.078125 88.894531 69.46875 89.027344 68.828125 C 89.175781 68.148438 89.253906 67.433594 89.253906 66.679688 C 89.253906 65.929688 89.175781 65.210938 89.027344 64.539062 C 88.894531 63.90625 88.648438 63.304688 88.304688 62.761719 C 87.976562 62.261719 87.535156 61.84375 87.015625 61.550781 C 86.429688 61.234375 85.769531 61.082031 85.101562 61.101562 Z M 58.453125 61.386719 L 54.949219 63.957031 L 56.257812 65.75 L 58.238281 64.210938 L 58.238281 72.039062 L 60.753906 72.039062 L 60.753906 61.382812 Z M 67.300781 61.386719 L 63.796875 63.957031 L 65.105469 65.75 L 67.089844 64.210938 L 67.089844 72.039062 L 69.601562 72.039062 L 69.601562 61.382812 Z M 76.109375 61.386719 L 72.613281 63.957031 L 73.914062 65.75 L 75.902344 64.210938 L 75.902344 72.039062 L 78.410156 72.039062 L 78.410156 61.382812 Z M 85.101562 63.234375 C 85.433594 63.234375 85.699219 63.351562 85.910156 63.585938 C 86.125 63.84375 86.285156 64.140625 86.382812 64.460938 C 86.492188 64.808594 86.566406 65.179688 86.605469 65.582031 C 86.679688 66.320312 86.679688 67.0625 86.605469 67.800781 C 86.570312 68.183594 86.496094 68.558594 86.382812 68.925781 C 86.289062 69.246094 86.125 69.542969 85.910156 69.800781 C 85.707031 70.035156 85.414062 70.164062 85.105469 70.152344 C 84.792969 70.164062 84.496094 70.035156 84.289062 69.800781 C 84.070312 69.546875 83.902344 69.246094 83.800781 68.925781 C 83.683594 68.558594 83.605469 68.183594 83.570312 67.800781 C 83.492188 67.0625 83.492188 66.320312 83.570312 65.582031 C 83.609375 65.179688 83.6875 64.808594 83.800781 64.457031 C 83.902344 64.136719 84.070312 63.839844 84.289062 63.585938 C 84.496094 63.351562 84.792969 63.222656 85.105469 63.234375 Z M 57.085938 76.039062 C 56.601562 76.023438 56.121094 76.136719 55.691406 76.363281 C 55.3125 76.578125 54.988281 76.878906 54.746094 77.242188 C 54.492188 77.636719 54.3125 78.074219 54.21875 78.535156 C 54.105469 79.023438 54.050781 79.542969 54.050781 80.085938 C 54.050781 80.632812 54.105469 81.152344 54.21875 81.648438 C 54.3125 82.113281 54.492188 82.554688 54.746094 82.953125 C 54.984375 83.324219 55.308594 83.632812 55.691406 83.851562 C 56.074219 84.070312 56.542969 84.183594 57.085938 84.183594 C 57.570312 84.199219 58.050781 84.082031 58.476562 83.851562 C 58.855469 83.632812 59.179688 83.324219 59.414062 82.953125 C 59.652344 82.578125 59.832031 82.144531 59.933594 81.648438 C 60.046875 81.136719 60.101562 80.613281 60.101562 80.085938 C 60.101562 79.546875 60.042969 79.023438 59.933594 78.535156 C 59.839844 78.074219 59.664062 77.636719 59.414062 77.242188 C 59.175781 76.878906 58.855469 76.582031 58.476562 76.367188 C 58.050781 76.136719 57.570312 76.019531 57.085938 76.035156 Z M 69.933594 76.039062 C 69.449219 76.023438 68.964844 76.132812 68.535156 76.363281 C 68.15625 76.578125 67.835938 76.878906 67.59375 77.242188 C 67.339844 77.636719 67.160156 78.074219 67.066406 78.535156 C 66.953125 79.042969 66.898438 79.566406 66.898438 80.085938 C 66.898438 80.632812 66.953125 81.152344 67.066406 81.648438 C 67.160156 82.113281 67.339844 82.554688 67.59375 82.953125 C 67.835938 83.328125 68.152344 83.628906 68.535156 83.851562 C 68.921875 84.070312 69.390625 84.183594 69.933594 84.183594 C 70.417969 84.199219 70.898438 84.082031 71.324219 83.851562 C 71.703125 83.632812 72.023438 83.324219 72.257812 82.953125 C 72.5 82.578125 72.675781 82.144531 72.78125 81.648438 C 73.007812 80.625 73.007812 79.558594 72.78125 78.535156 C 72.6875 78.074219 72.507812 77.636719 72.257812 77.242188 C 72.019531 76.878906 71.699219 76.582031 71.324219 76.367188 C 70.898438 76.136719 70.417969 76.019531 69.933594 76.035156 Z M 91.199219 76.039062 C 90.714844 76.023438 90.230469 76.132812 89.800781 76.363281 C 89.421875 76.578125 89.101562 76.878906 88.859375 77.242188 C 88.605469 77.636719 88.425781 78.074219 88.332031 78.535156 C 88.21875 79.023438 88.164062 79.542969 88.164062 80.085938 C 88.164062 80.632812 88.21875 81.152344 88.332031 81.648438 C 88.425781 82.113281 88.605469 82.554688 88.859375 82.953125 C 89.101562 83.328125 89.417969 83.628906 89.800781 83.851562 C 90.1875 84.070312 90.65625 84.183594 91.199219 84.183594 C 91.742188 84.183594 92.210938 84.070312 92.589844 83.851562 C 92.96875 83.632812 93.289062 83.324219 93.523438 82.953125 C 93.765625 82.578125 93.941406 82.144531 94.046875 81.648438 C 94.160156 81.136719 94.214844 80.613281 94.214844 80.085938 C 94.214844 79.546875 94.15625 79.023438 94.046875 78.535156 C 93.953125 78.074219 93.773438 77.636719 93.523438 77.242188 C 93.285156 76.878906 92.964844 76.582031 92.589844 76.367188 C 92.164062 76.136719 91.683594 76.019531 91.199219 76.035156 Z M 63.480469 76.246094 L 60.941406 78.113281 L 61.886719 79.410156 L 63.328125 78.300781 L 63.328125 83.976562 L 65.152344 83.976562 L 65.152344 76.242188 Z M 76.253906 76.246094 L 73.714844 78.113281 L 74.660156 79.410156 L 76.101562 78.300781 L 76.101562 83.976562 L 77.925781 83.976562 L 77.925781 76.242188 Z M 97.519531 76.246094 L 94.976562 78.113281 L 95.925781 79.410156 L 97.367188 78.300781 L 97.367188 83.976562 L 99.191406 83.976562 L 99.191406 76.242188 Z M 57.085938 77.585938 C 57.328125 77.585938 57.523438 77.671875 57.667969 77.847656 C 57.828125 78.03125 57.945312 78.242188 58.015625 78.476562 C 58.097656 78.742188 58.15625 79.015625 58.179688 79.292969 C 58.234375 79.828125 58.234375 80.363281 58.179688 80.898438 C 58.15625 81.179688 58.097656 81.453125 58.015625 81.722656 C 57.945312 81.953125 57.828125 82.167969 57.667969 82.355469 C 57.523438 82.523438 57.308594 82.617188 57.085938 82.609375 C 56.863281 82.617188 56.648438 82.523438 56.5 82.359375 C 56.339844 82.171875 56.21875 81.957031 56.144531 81.722656 C 56.058594 81.453125 56 81.179688 55.976562 80.898438 C 55.921875 80.363281 55.921875 79.828125 55.976562 79.292969 C 56 79.015625 56.054688 78.738281 56.140625 78.476562 C 56.214844 78.242188 56.335938 78.027344 56.5 77.847656 C 56.648438 77.675781 56.863281 77.582031 57.085938 77.585938 M 69.933594 77.585938 C 70.175781 77.585938 70.367188 77.671875 70.515625 77.847656 C 70.671875 78.03125 70.789062 78.242188 70.859375 78.476562 C 70.941406 78.742188 71 79.015625 71.023438 79.292969 C 71.078125 79.828125 71.078125 80.367188 71.023438 80.898438 C 71 81.179688 70.945312 81.453125 70.859375 81.722656 C 70.789062 81.953125 70.671875 82.167969 70.515625 82.355469 C 70.371094 82.523438 70.15625 82.617188 69.933594 82.609375 C 69.710938 82.617188 69.496094 82.523438 69.347656 82.359375 C 69.183594 82.171875 69.0625 81.957031 68.988281 81.722656 C 68.902344 81.453125 68.84375 81.179688 68.824219 80.898438 C 68.792969 80.628906 68.777344 80.359375 68.777344 80.085938 C 68.777344 79.851562 68.792969 79.582031 68.820312 79.292969 C 68.84375 79.011719 68.902344 78.738281 68.988281 78.476562 C 69.0625 78.242188 69.1875 78.027344 69.347656 77.847656 C 69.496094 77.675781 69.710938 77.582031 69.933594 77.585938 M 91.199219 77.585938 C 91.441406 77.585938 91.632812 77.671875 91.785156 77.847656 C 91.9375 78.03125 92.054688 78.242188 92.125 78.476562 C 92.210938 78.742188 92.265625 79.015625 92.292969 79.292969 C 92.34375 79.828125 92.34375 80.363281 92.292969 80.898438 C 92.265625 81.179688 92.210938 81.453125 92.125 81.722656 C 92.054688 81.953125 91.941406 82.167969 91.785156 82.355469 C 91.636719 82.523438 91.421875 82.617188 91.199219 82.609375 C 90.976562 82.617188 90.757812 82.527344 90.609375 82.359375 C 90.449219 82.171875 90.328125 81.953125 90.253906 81.722656 C 90.171875 81.453125 90.117188 81.179688 90.089844 80.898438 C 90.058594 80.628906 90.042969 80.359375 90.042969 80.085938 C 90.042969 79.851562 90.058594 79.582031 90.085938 79.292969 C 90.113281 79.015625 90.167969 78.742188 90.25 78.476562 C 90.332031 78.246094 90.453125 78.03125 90.609375 77.847656 C 90.757812 77.675781 90.976562 77.582031 91.199219 77.585938 M 84.191406 85.144531 C 83.703125 85.132812 83.21875 85.246094 82.789062 85.476562 C 82.410156 85.6875 82.085938 85.988281 81.84375 86.351562 C 81.589844 86.742188 81.410156 87.183594 81.316406 87.640625 C 81.089844 88.667969 81.089844 89.730469 81.316406 90.757812 C 81.414062 91.222656 81.589844 91.667969 81.84375 92.066406 C 82.089844 92.441406 82.402344 92.742188 82.789062 92.960938 C 83.179688 93.183594 83.644531 93.296875 84.191406 93.296875 C 84.675781 93.308594 85.152344 93.195312 85.582031 92.960938 C 85.957031 92.742188 86.277344 92.4375 86.511719 92.066406 C 86.753906 91.691406 86.929688 91.253906 87.039062 90.757812 C 87.261719 89.734375 87.261719 88.671875 87.03125 87.644531 C 86.9375 87.1875 86.761719 86.75 86.511719 86.355469 C 86.277344 85.992188 85.957031 85.6875 85.582031 85.476562 C 85.152344 85.246094 84.671875 85.132812 84.191406 85.144531 M 96.941406 85.144531 C 96.453125 85.132812 95.972656 85.246094 95.542969 85.476562 C 95.164062 85.6875 94.839844 85.988281 94.597656 86.351562 C 94.34375 86.742188 94.164062 87.183594 94.070312 87.640625 C 93.84375 88.667969 93.84375 89.730469 94.070312 90.757812 C 94.164062 91.222656 94.34375 91.667969 94.597656 92.066406 C 94.835938 92.4375 95.160156 92.742188 95.542969 92.960938 C 95.925781 93.183594 96.390625 93.296875 96.941406 93.296875 C 97.425781 93.3125 97.90625 93.195312 98.332031 92.960938 C 98.710938 92.742188 99.027344 92.4375 99.261719 92.066406 C 99.503906 91.691406 99.675781 91.253906 99.785156 90.757812 C 100.011719 89.734375 100.011719 88.671875 99.785156 87.644531 C 99.691406 87.1875 99.511719 86.75 99.261719 86.355469 C 99.027344 85.992188 98.707031 85.691406 98.332031 85.476562 C 97.90625 85.246094 97.425781 85.132812 96.941406 85.144531 M 90.507812 85.355469 L 87.964844 87.222656 L 88.914062 88.519531 L 90.355469 87.410156 L 90.355469 93.085938 L 92.179688 93.085938 L 92.179688 85.355469 Z M 84.191406 86.699219 C 84.425781 86.699219 84.621094 86.785156 84.773438 86.953125 C 84.929688 87.140625 85.046875 87.355469 85.113281 87.585938 C 85.199219 87.851562 85.253906 88.125 85.28125 88.398438 C 85.332031 88.9375 85.332031 89.476562 85.28125 90.011719 C 85.253906 90.292969 85.199219 90.566406 85.113281 90.832031 C 85.046875 91.066406 84.929688 91.28125 84.773438 91.464844 C 84.625 91.632812 84.410156 91.726562 84.191406 91.714844 C 83.964844 91.726562 83.746094 91.632812 83.597656 91.464844 C 83.4375 91.28125 83.316406 91.066406 83.246094 90.832031 C 83.160156 90.566406 83.101562 90.292969 83.078125 90.011719 C 83.050781 89.742188 83.035156 89.472656 83.03125 89.199219 C 83.03125 88.957031 83.042969 88.691406 83.074219 88.398438 C 83.101562 88.125 83.160156 87.851562 83.246094 87.585938 C 83.328125 87.335938 83.445312 87.128906 83.597656 86.953125 C 83.746094 86.785156 83.964844 86.691406 84.191406 86.699219 M 96.941406 86.699219 C 97.179688 86.699219 97.375 86.785156 97.523438 86.953125 C 97.679688 87.140625 97.796875 87.355469 97.867188 87.585938 C 97.949219 87.851562 98.003906 88.125 98.03125 88.398438 C 98.085938 88.9375 98.085938 89.476562 98.03125 90.011719 C 98.007812 90.292969 97.949219 90.566406 97.867188 90.832031 C 97.796875 91.066406 97.679688 91.28125 97.519531 91.464844 C 97.375 91.632812 97.160156 91.726562 96.9375 91.714844 C 96.714844 91.726562 96.5 91.632812 96.351562 91.464844 C 96.191406 91.28125 96.070312 91.066406 95.996094 90.832031 C 95.910156 90.566406 95.855469 90.292969 95.828125 90.011719 C 95.777344 89.476562 95.777344 88.9375 95.828125 88.398438 C 95.855469 88.125 95.910156 87.851562 95.996094 87.585938 C 96.078125 87.335938 96.195312 87.128906 96.351562 86.953125 C 96.5 86.785156 96.714844 86.691406 96.941406 86.699219 M 56.503906 87.472656 C 56.167969 87.460938 55.835938 87.539062 55.539062 87.699219 C 55.273438 87.847656 55.050781 88.054688 54.882812 88.308594 C 54.707031 88.582031 54.582031 88.886719 54.515625 89.203125 C 54.4375 89.558594 54.398438 89.921875 54.402344 90.285156 C 54.402344 90.660156 54.4375 91.019531 54.515625 91.367188 C 54.582031 91.6875 54.707031 91.992188 54.882812 92.265625 C 55.050781 92.527344 55.273438 92.734375 55.539062 92.886719 C 55.832031 93.050781 56.167969 93.128906 56.503906 93.121094 C 56.878906 93.121094 57.203125 93.039062 57.464844 92.886719 C 57.730469 92.734375 57.953125 92.523438 58.113281 92.265625 C 58.289062 91.988281 58.410156 91.683594 58.476562 91.363281 C 58.632812 90.652344 58.632812 89.914062 58.476562 89.203125 C 58.410156 88.886719 58.289062 88.582031 58.113281 88.308594 C 57.949219 88.054688 57.726562 87.847656 57.464844 87.699219 C 57.171875 87.542969 56.839844 87.460938 56.507812 87.472656 Z M 60.882812 87.617188 L 59.121094 88.910156 L 59.78125 89.8125 L 60.78125 89.042969 L 60.78125 92.976562 L 62.039062 92.976562 L 62.039062 87.617188 Z M 56.503906 88.550781 C 56.671875 88.550781 56.808594 88.609375 56.90625 88.726562 C 57.015625 88.851562 57.097656 89 57.144531 89.164062 C 57.203125 89.347656 57.242188 89.535156 57.261719 89.730469 C 57.277344 89.933594 57.289062 90.113281 57.289062 90.285156 C 57.289062 90.449219 57.277344 90.640625 57.261719 90.847656 C 57.242188 91.039062 57.203125 91.226562 57.144531 91.414062 C 57.097656 91.574219 57.015625 91.722656 56.90625 91.851562 C 56.808594 91.96875 56.660156 92.035156 56.503906 92.027344 C 56.347656 92.035156 56.199219 91.96875 56.097656 91.851562 C 55.984375 91.722656 55.902344 91.574219 55.851562 91.414062 C 55.789062 91.230469 55.75 91.039062 55.734375 90.847656 C 55.699219 90.472656 55.699219 90.101562 55.734375 89.730469 C 55.75 89.535156 55.789062 89.347656 55.851562 89.164062 C 55.902344 89 55.988281 88.851562 56.101562 88.726562 C 56.203125 88.609375 56.351562 88.546875 56.503906 88.550781 M 72.21875 94.359375 C 71.882812 94.347656 71.550781 94.425781 71.253906 94.582031 C 70.992188 94.730469 70.765625 94.9375 70.601562 95.191406 C 70.421875 95.464844 70.300781 95.765625 70.234375 96.082031 C 70.074219 96.796875 70.074219 97.535156 70.234375 98.246094 C 70.300781 98.566406 70.425781 98.875 70.601562 99.148438 C 70.765625 99.40625 70.988281 99.621094 71.253906 99.773438 C 71.550781 99.933594 71.882812 100.011719 72.21875 100 C 72.558594 100.011719 72.890625 99.933594 73.1875 99.769531 C 73.449219 99.617188 73.667969 99.40625 73.832031 99.148438 C 74.003906 98.871094 74.128906 98.566406 74.195312 98.246094 C 74.351562 97.535156 74.351562 96.796875 74.195312 96.082031 C 74.128906 95.765625 74.003906 95.464844 73.832031 95.191406 C 73.667969 94.941406 73.445312 94.730469 73.1875 94.582031 C 72.890625 94.425781 72.554688 94.347656 72.21875 94.359375 M 76.601562 94.5 L 74.839844 95.792969 L 75.496094 96.691406 L 76.496094 95.921875 L 76.496094 99.859375 L 77.757812 99.859375 L 77.757812 94.5 Z M 72.21875 95.429688 C 72.386719 95.429688 72.523438 95.488281 72.628906 95.609375 C 72.734375 95.738281 72.816406 95.886719 72.867188 96.046875 C 72.921875 96.230469 72.960938 96.417969 72.976562 96.609375 C 73.015625 96.980469 73.015625 97.355469 72.976562 97.726562 C 72.960938 97.917969 72.921875 98.109375 72.867188 98.296875 C 72.816406 98.457031 72.734375 98.605469 72.628906 98.734375 C 72.527344 98.851562 72.375 98.914062 72.21875 98.910156 C 72.066406 98.914062 71.914062 98.851562 71.8125 98.734375 C 71.699219 98.605469 71.617188 98.457031 71.566406 98.296875 C 71.507812 98.109375 71.46875 97.917969 71.449219 97.726562 C 71.414062 97.355469 71.414062 96.980469 71.449219 96.609375 C 71.46875 96.417969 71.507812 96.226562 71.566406 96.046875 C 71.617188 95.882812 71.703125 95.734375 71.816406 95.609375 C 71.917969 95.492188 72.066406 95.425781 72.21875 95.429688 "/>
</g>
</svg>
